<?xml version="1.0" standalone="no"?>
<!DOCTYPE svg PUBLIC "-//W3C//DTD SVG 20010904//EN"
 "http://www.w3.org/TR/2001/REC-SVG-20010904/DTD/svg10.dtd">
<svg version="1.0" xmlns="http://www.w3.org/2000/svg"
 width="180.000000pt" height="180.000000pt" viewBox="0 0 180.000000 180.000000"
 preserveAspectRatio="xMidYMid meet">

<g transform="translate(0.000000,180.000000) scale(0.100000,-0.100000)"
fill="#000000" stroke="none">
<path d="M763 1791 c-346 -56 -625 -304 -730 -648 -24 -79 -26 -104 -26 -243
0 -139 2 -164 26 -243 94 -309 315 -530 624 -624 79 -24 104 -26 243 -26 139
0 164 2 243 26 309 94 530 315 624 624 24 79 26 104 26 243 0 139 -2 164 -26
243 -94 310 -318 533 -624 623 -97 28 -283 40 -380 25z m411 -394 c15 -11 20
-40 30 -180 7 -91 15 -169 19 -173 3 -3 20 -1 38 5 55 19 79 13 119 -26 62
-62 90 -211 90 -472 0 -104 -3 -133 -16 -145 -18 -19 -28 -20 -55 -6 -17 10
-19 23 -19 151 0 239 -31 419 -72 419 -50 -1 -70 -64 -78 -260 -5 -91 -11
-173 -15 -183 -8 -20 -57 -23 -73 -4 -19 23 -23 101 -13 222 9 95 8 174 -5
379 -16 250 -16 260 2 273 22 16 26 16 48 0z m435 -62 c16 -16 7 -51 -17 -64
-22 -11 -58 2 -71 27 -16 30 14 65 48 57 14 -3 32 -12 40 -20z m-1157 -242
c108 -102 101 -263 -17 -428 -87 -122 -186 -159 -259 -95 -80 71 -89 255 -18
395 79 159 205 213 294 128z m1196 31 c5 -9 7 -80 4 -158 -3 -114 0 -165 17
-265 12 -69 18 -128 14 -132 -20 -18 -50 -18 -65 -2 -36 44 -61 219 -56 401 3
111 6 133 22 151 23 25 52 27 64 5z m-788 -64 c19 -35 -6 -58 -82 -74 -32 -7
-68 -62 -75 -115 -9 -65 24 -176 62 -215 28 -27 87 -20 135 17 24 17 49 36 56
42 14 10 54 -19 54 -41 0 -23 -48 -69 -100 -98 -44 -24 -61 -28 -105 -24 -95
8 -157 81 -185 223 -29 141 50 284 168 305 45 8 59 3 72 -20z"/>
<path d="M317 1010 c-5 -21 -14 -31 -32 -36 -16 -4 -33 -20 -44 -43 -38 -75
-53 -221 -28 -271 18 -36 65 -39 105 -5 63 52 135 242 118 309 -10 40 -50 76
-84 76 -25 0 -30 -5 -35 -30z"/>
</g>
</svg>
